<svg viewBox="0 0 600 600" fill="none" xmlns="http://www.w3.org/2000/svg">
  <g clip-path="url(#clip0_1_87)">
    <path class="cloud"
      d="M565.056 80.2913C517.103 22.1096 431.073 13.8217 372.896 61.7733C341.19 87.9032 324.432 125.344 323.385 163.422C318.761 153.939 313.1 144.814 306.106 136.318C258.154 78.1364 172.123 69.8485 113.947 117.8C57.7338 164.128 48.2634 245.935 90.9182 303.881C77.1604 309.036 63.9731 316.393 51.9934 326.265C-6.19814 374.221 -14.491 460.254 33.4606 518.43C81.4088 576.602 167.449 584.898 225.62 536.949C250.073 516.797 265.595 489.886 271.943 461.167C319.926 489.205 382.202 486.175 427.59 448.757C471.614 412.475 487.008 354.402 471.154 303.071C497.896 300.848 524.255 290.799 546.537 272.433C604.718 224.491 613.01 138.458 565.055 80.2733L565.056 80.2913Z"
      fill="#DC2626" />
  </g>
  <path
    d="M333.182 188.818H392.415V328.591C392.415 345.21 388.438 359.592 380.483 371.737C372.599 383.811 361.591 393.151 347.457 399.756C333.324 406.29 316.918 409.557 298.239 409.557C279.418 409.557 262.94 406.29 248.807 399.756C234.673 393.151 223.665 383.811 215.781 371.737C207.969 359.592 204.062 345.21 204.062 328.591V188.818H263.295V323.477C263.295 330.224 264.787 336.261 267.77 341.588C270.753 346.844 274.872 350.963 280.128 353.946C285.455 356.929 291.491 358.42 298.239 358.42C305.057 358.42 311.094 356.929 316.349 353.946C321.605 350.963 325.724 346.844 328.707 341.588C331.69 336.261 333.182 330.224 333.182 323.477V188.818Z"
    fill="white" />
  <defs>
    <clipPath id="clip0_1_87">
      <rect width="597" height="542" fill="white" transform="translate(1 29)" />
    </clipPath>
  </defs>
</svg>